<mxfile host="app.diagrams.net" agent="Mozilla/5.0 (Windows NT 10.0; Win64; x64) AppleWebKit/537.36 (KHTML, like Gecko) Chrome/132.0.0.0 Safari/537.36 Edg/132.0.0.0" version="25.0.1">
  <diagram name="Page-1" id="DxvaLPPJRBRpfvUQAXJG">
    <mxGraphModel dx="1412" dy="733" grid="1" gridSize="10" guides="1" tooltips="1" connect="1" arrows="1" fold="1" page="1" pageScale="1" pageWidth="827" pageHeight="1169" math="0" shadow="0">
      <root>
        <mxCell id="0" />
        <mxCell id="1" parent="0" />
        <mxCell id="_p4WkPJnLGYLwfMs8fxd-3" value="" style="edgeStyle=orthogonalEdgeStyle;rounded=0;orthogonalLoop=1;jettySize=auto;html=1;" edge="1" parent="1" source="_p4WkPJnLGYLwfMs8fxd-1" target="_p4WkPJnLGYLwfMs8fxd-2">
          <mxGeometry relative="1" as="geometry" />
        </mxCell>
        <mxCell id="_p4WkPJnLGYLwfMs8fxd-23" style="edgeStyle=orthogonalEdgeStyle;rounded=0;orthogonalLoop=1;jettySize=auto;html=1;exitX=1;exitY=0.5;exitDx=0;exitDy=0;entryX=0.5;entryY=0;entryDx=0;entryDy=0;" edge="1" parent="1" source="_p4WkPJnLGYLwfMs8fxd-1" target="_p4WkPJnLGYLwfMs8fxd-22">
          <mxGeometry relative="1" as="geometry" />
        </mxCell>
        <mxCell id="_p4WkPJnLGYLwfMs8fxd-29" value="" style="edgeStyle=orthogonalEdgeStyle;rounded=0;orthogonalLoop=1;jettySize=auto;html=1;entryX=0;entryY=0.5;entryDx=0;entryDy=0;exitX=1;exitY=0.5;exitDx=0;exitDy=0;" edge="1" parent="1" source="_p4WkPJnLGYLwfMs8fxd-28" target="_p4WkPJnLGYLwfMs8fxd-1">
          <mxGeometry relative="1" as="geometry" />
        </mxCell>
        <mxCell id="_p4WkPJnLGYLwfMs8fxd-1" value="OPEN" style="ellipse;whiteSpace=wrap;html=1;" vertex="1" parent="1">
          <mxGeometry x="240" y="40" width="120" height="80" as="geometry" />
        </mxCell>
        <mxCell id="_p4WkPJnLGYLwfMs8fxd-4" style="edgeStyle=orthogonalEdgeStyle;rounded=0;orthogonalLoop=1;jettySize=auto;html=1;exitX=0.5;exitY=1;exitDx=0;exitDy=0;entryX=0.5;entryY=0;entryDx=0;entryDy=0;" edge="1" parent="1" source="_p4WkPJnLGYLwfMs8fxd-2" target="_p4WkPJnLGYLwfMs8fxd-5">
          <mxGeometry relative="1" as="geometry">
            <mxPoint x="300" y="290" as="targetPoint" />
          </mxGeometry>
        </mxCell>
        <mxCell id="_p4WkPJnLGYLwfMs8fxd-24" style="edgeStyle=orthogonalEdgeStyle;rounded=0;orthogonalLoop=1;jettySize=auto;html=1;exitX=1;exitY=0.5;exitDx=0;exitDy=0;entryX=0.5;entryY=0;entryDx=0;entryDy=0;" edge="1" parent="1" source="_p4WkPJnLGYLwfMs8fxd-2" target="_p4WkPJnLGYLwfMs8fxd-22">
          <mxGeometry relative="1" as="geometry" />
        </mxCell>
        <mxCell id="_p4WkPJnLGYLwfMs8fxd-2" value="REFINING" style="whiteSpace=wrap;html=1;" vertex="1" parent="1">
          <mxGeometry x="240" y="160" width="120" height="40" as="geometry" />
        </mxCell>
        <mxCell id="_p4WkPJnLGYLwfMs8fxd-7" style="edgeStyle=orthogonalEdgeStyle;rounded=0;orthogonalLoop=1;jettySize=auto;html=1;exitX=0.5;exitY=1;exitDx=0;exitDy=0;" edge="1" parent="1" source="_p4WkPJnLGYLwfMs8fxd-5">
          <mxGeometry relative="1" as="geometry">
            <mxPoint x="300" y="400" as="targetPoint" />
          </mxGeometry>
        </mxCell>
        <mxCell id="_p4WkPJnLGYLwfMs8fxd-25" style="edgeStyle=orthogonalEdgeStyle;rounded=0;orthogonalLoop=1;jettySize=auto;html=1;exitX=1;exitY=0.5;exitDx=0;exitDy=0;entryX=0.5;entryY=0;entryDx=0;entryDy=0;" edge="1" parent="1" source="_p4WkPJnLGYLwfMs8fxd-5" target="_p4WkPJnLGYLwfMs8fxd-22">
          <mxGeometry relative="1" as="geometry">
            <mxPoint x="500" y="470" as="targetPoint" />
          </mxGeometry>
        </mxCell>
        <mxCell id="_p4WkPJnLGYLwfMs8fxd-5" value="ON HOLD" style="whiteSpace=wrap;html=1;" vertex="1" parent="1">
          <mxGeometry x="240" y="240" width="120" height="40" as="geometry" />
        </mxCell>
        <mxCell id="_p4WkPJnLGYLwfMs8fxd-26" style="edgeStyle=orthogonalEdgeStyle;rounded=0;orthogonalLoop=1;jettySize=auto;html=1;exitX=1;exitY=0.5;exitDx=0;exitDy=0;" edge="1" parent="1" source="_p4WkPJnLGYLwfMs8fxd-8">
          <mxGeometry relative="1" as="geometry">
            <mxPoint x="500" y="480" as="targetPoint" />
          </mxGeometry>
        </mxCell>
        <mxCell id="_p4WkPJnLGYLwfMs8fxd-8" value="IN PROGRESS" style="whiteSpace=wrap;html=1;" vertex="1" parent="1">
          <mxGeometry x="240" y="320" width="120" height="40" as="geometry" />
        </mxCell>
        <mxCell id="_p4WkPJnLGYLwfMs8fxd-9" style="edgeStyle=orthogonalEdgeStyle;rounded=0;orthogonalLoop=1;jettySize=auto;html=1;exitX=0.5;exitY=1;exitDx=0;exitDy=0;" edge="1" parent="1" source="_p4WkPJnLGYLwfMs8fxd-5" target="_p4WkPJnLGYLwfMs8fxd-5">
          <mxGeometry relative="1" as="geometry" />
        </mxCell>
        <mxCell id="_p4WkPJnLGYLwfMs8fxd-13" value="" style="edgeStyle=orthogonalEdgeStyle;rounded=0;orthogonalLoop=1;jettySize=auto;html=1;" edge="1" parent="1" source="_p4WkPJnLGYLwfMs8fxd-10" target="_p4WkPJnLGYLwfMs8fxd-12">
          <mxGeometry relative="1" as="geometry" />
        </mxCell>
        <mxCell id="_p4WkPJnLGYLwfMs8fxd-27" style="edgeStyle=orthogonalEdgeStyle;rounded=0;orthogonalLoop=1;jettySize=auto;html=1;exitX=1;exitY=0.5;exitDx=0;exitDy=0;entryX=0.5;entryY=0;entryDx=0;entryDy=0;" edge="1" parent="1" source="_p4WkPJnLGYLwfMs8fxd-10" target="_p4WkPJnLGYLwfMs8fxd-22">
          <mxGeometry relative="1" as="geometry" />
        </mxCell>
        <mxCell id="_p4WkPJnLGYLwfMs8fxd-10" value="IN REVIEW" style="whiteSpace=wrap;html=1;" vertex="1" parent="1">
          <mxGeometry x="240" y="400" width="120" height="40" as="geometry" />
        </mxCell>
        <mxCell id="_p4WkPJnLGYLwfMs8fxd-19" value="" style="edgeStyle=orthogonalEdgeStyle;rounded=0;orthogonalLoop=1;jettySize=auto;html=1;entryX=0.5;entryY=0;entryDx=0;entryDy=0;" edge="1" parent="1" source="_p4WkPJnLGYLwfMs8fxd-12" target="_p4WkPJnLGYLwfMs8fxd-21">
          <mxGeometry relative="1" as="geometry">
            <mxPoint x="300" y="580" as="targetPoint" />
          </mxGeometry>
        </mxCell>
        <mxCell id="_p4WkPJnLGYLwfMs8fxd-12" value="RESOLVED" style="whiteSpace=wrap;html=1;" vertex="1" parent="1">
          <mxGeometry x="240" y="480" width="120" height="40" as="geometry" />
        </mxCell>
        <mxCell id="_p4WkPJnLGYLwfMs8fxd-21" value="CLOSED" style="ellipse;whiteSpace=wrap;html=1;" vertex="1" parent="1">
          <mxGeometry x="240" y="560" width="120" height="80" as="geometry" />
        </mxCell>
        <mxCell id="_p4WkPJnLGYLwfMs8fxd-30" style="edgeStyle=orthogonalEdgeStyle;rounded=0;orthogonalLoop=1;jettySize=auto;html=1;exitX=0.5;exitY=1;exitDx=0;exitDy=0;entryX=0.5;entryY=1;entryDx=0;entryDy=0;" edge="1" parent="1" source="_p4WkPJnLGYLwfMs8fxd-22" target="_p4WkPJnLGYLwfMs8fxd-28">
          <mxGeometry relative="1" as="geometry">
            <Array as="points">
              <mxPoint x="500" y="680" />
              <mxPoint x="100" y="680" />
            </Array>
          </mxGeometry>
        </mxCell>
        <mxCell id="_p4WkPJnLGYLwfMs8fxd-22" value="ABANDONED" style="whiteSpace=wrap;html=1;" vertex="1" parent="1">
          <mxGeometry x="440" y="480" width="120" height="40" as="geometry" />
        </mxCell>
        <mxCell id="_p4WkPJnLGYLwfMs8fxd-28" value="REOPENED" style="ellipse;whiteSpace=wrap;html=1;" vertex="1" parent="1">
          <mxGeometry x="40" y="150" width="120" height="80" as="geometry" />
        </mxCell>
      </root>
    </mxGraphModel>
  </diagram>
</mxfile>
